# xmcd CD database file
#
# Track frame offsets:
#	150
#	31092
#	64747
#
# Disc length: 1362 seconds
#
# Revision: 1
# Processed by: cddbd v1.5.2PL0 Copyright (c) Steve Scherf et al.
# Submitted via: CDex 1.78
#
DISCID=1c055003
DTITLE=Odyssee of Noises - Last Caprioles
DYEAR=1994
DGENRE=New Age
TTITLE0=Capriole One
TTITLE1=Capriole Two
TTITLE2=Capriole Three
EXTD=Produced by Odysee of Noises. 1 written by A.C. Boutsen, 2 by R. Hildenbeutel, 3 by Stevie Be-Zet\nEYE-Q EYEQ023CD YEAR: 1994
EXTT0=
EXTT1=
EXTT2=
PLAYORDER=
